<?xml version="1.0" standalone="no"?>
<!DOCTYPE svg PUBLIC "-//W3C//DTD SVG 20010904//EN"
 "http://www.w3.org/TR/2001/REC-SVG-20010904/DTD/svg10.dtd">
<svg version="1.0" xmlns="http://www.w3.org/2000/svg"
 width="719.000000pt" height="289.000000pt" viewBox="0 0 719.000000 289.000000"
 preserveAspectRatio="xMidYMid meet">
<metadata>
Created by potrace 1.15, written by Peter Selinger 2001-2017
</metadata>
<g transform="translate(0.000000,289.000000) scale(0.100000,-0.100000)"
fill="#000000" stroke="none">
<path d="M3442 1738 l3 -943 135 0 135 0 3 943 2 942 -140 0 -140 0 2 -942z"/>
<path d="M4102 2474 c-109 -56 -107 -221 3 -274 53 -26 80 -25 135 3 141 70
100 271 -57 284 -32 2 -59 -2 -81 -13z"/>
<path d="M2656 2179 c-75 -59 -72 -171 6 -219 113 -69 245 60 183 180 -31 59
-136 81 -189 39z"/>
<path d="M2875 2000 c-50 -97 -192 -118 -259 -39 -31 36 -41 36 -97 1 -182
-116 -234 -362 -111 -519 48 -60 101 -89 300 -164 166 -62 192 -80 192 -133 0
-56 -32 -93 -96 -112 -76 -22 -139 -15 -289 31 -66 21 -128 40 -137 42 -17 5
-18 -6 -18 -131 l0 -136 28 -11 c46 -18 224 -57 287 -64 79 -8 205 15 281 51
271 128 293 522 37 652 -21 11 -103 41 -183 67 -80 26 -153 55 -164 64 -54 47
-35 112 46 156 45 25 57 27 122 22 39 -3 115 -19 170 -36 54 -17 103 -31 108
-31 5 0 7 58 6 133 l-3 132 -54 17 c-30 10 -76 22 -103 27 -47 8 -49 7 -63
-19z"/>
<path d="M670 2014 c-218 -32 -320 -113 -384 -306 l-26 -77 0 -420 0 -421 140
0 140 0 0 338 c1 387 7 467 41 517 28 42 103 81 172 91 l47 6 0 139 0 139 -52
-1 c-29 -1 -64 -3 -78 -5z"/>
<path d="M1385 2004 c-222 -55 -408 -243 -459 -464 -33 -138 -11 -305 56 -433
19 -38 64 -94 113 -143 127 -128 264 -187 440 -187 179 0 322 59 450 187 173
171 225 387 151 622 -60 187 -197 330 -386 399 -94 35 -268 44 -365 19z m313
-299 c205 -112 247 -388 84 -548 -71 -69 -148 -101 -247 -102 -66 0 -90 5
-136 26 -79 37 -133 90 -171 167 -30 60 -33 75 -33 152 1 71 5 94 27 140 36
73 99 136 173 172 56 27 67 29 155 26 82 -3 102 -8 148 -33z"/>
<path d="M4967 1996 c-85 -30 -153 -74 -209 -134 -56 -60 -81 -101 -110 -182
-22 -64 -23 -72 -23 -475 l0 -410 138 -3 c75 -1 138 -1 139 0 0 2 4 179 7 393
7 420 9 434 64 493 44 48 93 64 177 60 65 -2 82 -7 113 -31 37 -28 60 -63 80
-121 6 -19 13 -185 16 -411 l6 -380 144 -3 143 -3 -5 413 c-5 440 -7 459 -59
562 -27 52 -109 138 -169 177 -124 79 -316 103 -452 55z"/>
<path d="M4040 1395 l0 -605 135 0 135 0 0 605 0 605 -135 0 -135 0 0 -605z"/>
<path d="M5930 1667 c0 -353 8 -464 41 -565 52 -159 211 -291 389 -322 77 -14
148 -7 249 25 l73 24 -4 -138 c-3 -123 -6 -142 -29 -186 -70 -136 -255 -176
-368 -79 -49 43 -67 74 -84 151 l-14 58 -136 3 -137 3 0 -39 c0 -116 72 -273
164 -360 207 -193 524 -190 725 8 67 66 100 120 132 215 l24 70 3 733 3 732
-139 0 -139 0 -6 -257 c-4 -141 -7 -309 -7 -373 0 -183 -30 -253 -128 -298
-45 -20 -64 -24 -113 -19 -94 8 -128 31 -169 112 l-35 69 -6 351 c-4 192 -7
365 -8 383 l-1 32 -140 0 -140 0 0 -333z"/>
</g>
</svg>
